<svg version="1.2" xmlns="http://www.w3.org/2000/svg" viewBox="0 0 192 192" width="192" height="192">
	<title>gz 192px x 192px svg</title>
	<style>
		.s0 { fill: #b51200 } 
	</style>
	<path id="Layer" fill-rule="evenodd" class="s0" d="m86.4 58.9l2.5 2.3-7.9 8-8 8-4.1-3.8c-7.2-6.5-10.1-7.8-16.8-7.8-22.8 0-35.4 30.7-20.3 49.6 12.9 16.1 37.5 12.5 40.1-5.9l0.2-1.7h-23.4v-18.4h45.9l-0.2 9c-0.6 26.4-9.1 40.5-28.2 46.7-32.5 10.4-61.6-10.3-64.7-46.4-2.4-26.9 13.8-49.3 38.6-53.3 16.7-2.6 34.1 2.5 46.3 13.7zm20.5-13.2h84l-0.4 0.9c-1.2 2.2-12.6 20.7-18.6 30.3-3.7 5.9-10.9 17.2-15.9 25.3-5 8-10.2 16.4-11.7 18.6l-2.5 4.1h44.6v21.7h-43.7c-24 0-43.7-0.1-43.7-0.2 0-0.1 1.6-2.5 3.5-5.3 1.9-2.8 13.2-20.9 25.2-40l21.8-34.9-21.3-0.1-21.3-0.1z"/>
</svg>